<svg version="1.1" xmlns="http://www.w3.org/2000/svg" xmlns:xlink="http://www.w3.org/1999/xlink" width="761.2197265625" height="813"><defs/><g><text fill="#eeeeee" stroke="none" font-family="Arial" font-size="24px" font-style="normal" font-weight="normal" text-decoration="none" x="0" y="0"></text><text fill="#eeeeee" stroke="none" font-family="Arial" font-size="24px" font-style="normal" font-weight="normal" text-decoration="none" x="0" y="30"></text><text fill="#eeeeee" stroke="none" font-family="Arial" font-size="24px" font-style="normal" font-weight="normal" text-decoration="none" x="0" y="60"></text><text fill="#eeeeee" stroke="none" font-family="Arial" font-size="24px" font-style="normal" font-weight="normal" text-decoration="none" x="0" y="90"></text><text fill="#eeeeee" stroke="none" font-family="Arial" font-size="24px" font-style="normal" font-weight="normal" text-decoration="none" x="0" y="120"></text><text fill="#eeeeee" stroke="none" font-family="Arial" font-size="24px" font-style="normal" font-weight="normal" text-decoration="none" x="0" y="150"></text><text fill="#eeeeee" stroke="none" font-family="Arial" font-size="24px" font-style="normal" font-weight="normal" text-decoration="none" x="0" y="180"></text><text fill="#eeeeee" stroke="none" font-family="Arial" font-size="24px" font-style="normal" font-weight="normal" text-decoration="none" x="0" y="210"></text><text fill="#eeeeee" stroke="none" font-family="Arial" font-size="24px" font-style="normal" font-weight="normal" text-decoration="none" x="0" y="240"></text><text fill="#eeeeee" stroke="none" font-family="Arial" font-size="24px" font-style="normal" font-weight="normal" text-decoration="none" x="0" y="270"></text><text fill="#eeeeee" stroke="none" font-family="Arial" font-size="24px" font-style="normal" font-weight="normal" text-decoration="none" x="0" y="300"></text><text fill="#eeeeee" stroke="none" font-family="Arial" font-size="24px" font-style="normal" font-weight="normal" text-decoration="none" x="0" y="330"></text><text fill="#eeeeee" stroke="none" font-family="Arial" font-size="24px" font-style="normal" font-weight="normal" text-decoration="none" x="0" y="360"></text><text fill="#eeeeee" stroke="none" font-family="Arial" font-size="24px" font-style="normal" font-weight="normal" text-decoration="none" x="0" y="390"></text><text fill="#eeeeee" stroke="none" font-family="Arial" font-size="24px" font-style="normal" font-weight="normal" text-decoration="none" x="0" y="420"></text><text fill="#eeeeee" stroke="none" font-family="Arial" font-size="24px" font-style="normal" font-weight="normal" text-decoration="none" x="0" y="450"></text><text fill="#eeeeee" stroke="none" font-family="Arial" font-size="24px" font-style="normal" font-weight="normal" text-decoration="none" x="0" y="480"></text><text fill="#eeeeee" stroke="none" font-family="Arial" font-size="24px" font-style="normal" font-weight="normal" text-decoration="none" x="0" y="510"></text><text fill="#eeeeee" stroke="none" font-family="Arial" font-size="24px" font-style="normal" font-weight="normal" text-decoration="none" x="0" y="540"></text><text fill="#eeeeee" stroke="none" font-family="Arial" font-size="24px" font-style="normal" font-weight="normal" text-decoration="none" x="0" y="570"></text><text fill="#eeeeee" stroke="none" font-family="Arial" font-size="24px" font-style="normal" font-weight="normal" text-decoration="none" x="0" y="600"></text><text fill="#eeeeee" stroke="none" font-family="Arial" font-size="24px" font-style="normal" font-weight="normal" text-decoration="none" x="0" y="630"></text><text fill="#eeeeee" stroke="none" font-family="Arial" font-size="24px" font-style="normal" font-weight="normal" text-decoration="none" x="0" y="660"></text><text fill="#eeeeee" stroke="none" font-family="Arial" font-size="24px" font-style="normal" font-weight="normal" text-decoration="none" x="0" y="690"></text><text fill="#eeeeee" stroke="none" font-family="Arial" font-size="24px" font-style="normal" font-weight="normal" text-decoration="none" x="0" y="720"></text><text fill="#eeeeee" stroke="none" font-family="Arial" font-size="24px" font-style="normal" font-weight="normal" text-decoration="none" x="0" y="750"></text><text fill="#eeeeee" stroke="none" font-family="Arial" font-size="24px" font-style="normal" font-weight="normal" text-decoration="none" x="0" y="780"></text><text fill="#eeeeee" stroke="none" font-family="Arial" font-size="24px" font-style="normal" font-weight="normal" text-decoration="none" x="0" y="810"></text><text fill="#eeeeee" stroke="none" font-family="Arial" font-size="24px" font-style="normal" font-weight="normal" text-decoration="none" x="200" y="0"></text><text fill="#eeeeee" stroke="none" font-family="Arial" font-size="24px" font-style="normal" font-weight="normal" text-decoration="none" x="200" y="30"></text><text fill="#eeeeee" stroke="none" font-family="Arial" font-size="24px" font-style="normal" font-weight="normal" text-decoration="none" x="200" y="60"></text><text fill="#eeeeee" stroke="none" font-family="Arial" font-size="24px" font-style="normal" font-weight="normal" text-decoration="none" x="200" y="90"></text><text fill="#eeeeee" stroke="none" font-family="Arial" font-size="24px" font-style="normal" font-weight="normal" text-decoration="none" x="200" y="120"></text><text fill="#eeeeee" stroke="none" font-family="Arial" font-size="24px" font-style="normal" font-weight="normal" text-decoration="none" x="200" y="150"></text><text fill="#eeeeee" stroke="none" font-family="Arial" font-size="24px" font-style="normal" font-weight="normal" text-decoration="none" x="200" y="180"></text><text fill="#eeeeee" stroke="none" font-family="Arial" font-size="24px" font-style="normal" font-weight="normal" text-decoration="none" x="200" y="210"></text><text fill="#eeeeee" stroke="none" font-family="Arial" font-size="24px" font-style="normal" font-weight="normal" text-decoration="none" x="200" y="240"></text><text fill="#eeeeee" stroke="none" font-family="Arial" font-size="24px" font-style="normal" font-weight="normal" text-decoration="none" x="200" y="270"></text><text fill="#eeeeee" stroke="none" font-family="Arial" font-size="24px" font-style="normal" font-weight="normal" text-decoration="none" x="200" y="300"></text><text fill="#eeeeee" stroke="none" font-family="Arial" font-size="24px" font-style="normal" font-weight="normal" text-decoration="none" x="200" y="330"></text><text fill="#eeeeee" stroke="none" font-family="Arial" font-size="24px" font-style="normal" font-weight="normal" text-decoration="none" x="200" y="360"></text><text fill="#eeeeee" stroke="none" font-family="Arial" font-size="24px" font-style="normal" font-weight="normal" text-decoration="none" x="200" y="390"></text><text fill="#eeeeee" stroke="none" font-family="Arial" font-size="24px" font-style="normal" font-weight="normal" text-decoration="none" x="200" y="420"></text><text fill="#eeeeee" stroke="none" font-family="Arial" font-size="24px" font-style="normal" font-weight="normal" text-decoration="none" x="200" y="450"></text><text fill="#eeeeee" stroke="none" font-family="Arial" font-size="24px" font-style="normal" font-weight="normal" text-decoration="none" x="200" y="480"></text><text fill="#eeeeee" stroke="none" font-family="Arial" font-size="24px" font-style="normal" font-weight="normal" text-decoration="none" x="200" y="510"></text><text fill="#eeeeee" stroke="none" font-family="Arial" font-size="24px" font-style="normal" font-weight="normal" text-decoration="none" x="200" y="540"></text><text fill="#eeeeee" stroke="none" font-family="Arial" font-size="24px" font-style="normal" font-weight="normal" text-decoration="none" x="200" y="570"></text><text fill="#eeeeee" stroke="none" font-family="Arial" font-size="24px" font-style="normal" font-weight="normal" text-decoration="none" x="200" y="600"></text><text fill="#eeeeee" stroke="none" font-family="Arial" font-size="24px" font-style="normal" font-weight="normal" text-decoration="none" x="200" y="630"></text><text fill="#eeeeee" stroke="none" font-family="Arial" font-size="24px" font-style="normal" font-weight="normal" text-decoration="none" x="200" y="660"></text><text fill="#eeeeee" stroke="none" font-family="Arial" font-size="24px" font-style="normal" font-weight="normal" text-decoration="none" x="200" y="690"></text><text fill="#eeeeee" stroke="none" font-family="Arial" font-size="24px" font-style="normal" font-weight="normal" text-decoration="none" x="200" y="720"></text><text fill="#eeeeee" stroke="none" font-family="Arial" font-size="24px" font-style="normal" font-weight="normal" text-decoration="none" x="200" y="750"></text><text fill="#eeeeee" stroke="none" font-family="Arial" font-size="24px" font-style="normal" font-weight="normal" text-decoration="none" x="200" y="780"></text><text fill="#eeeeee" stroke="none" font-family="Arial" font-size="24px" font-style="normal" font-weight="normal" text-decoration="none" x="200" y="810"></text><text fill="#eeeeee" stroke="none" font-family="Arial" font-size="24px" font-style="normal" font-weight="normal" text-decoration="none" x="400" y="0"></text><text fill="#eeeeee" stroke="none" font-family="Arial" font-size="24px" font-style="normal" font-weight="normal" text-decoration="none" x="400" y="30"></text><text fill="#eeeeee" stroke="none" font-family="Arial" font-size="24px" font-style="normal" font-weight="normal" text-decoration="none" x="400" y="60"></text><text fill="#eeeeee" stroke="none" font-family="Arial" font-size="24px" font-style="normal" font-weight="normal" text-decoration="none" x="400" y="90"></text><text fill="#eeeeee" stroke="none" font-family="Arial" font-size="24px" font-style="normal" font-weight="normal" text-decoration="none" x="400" y="120"></text><text fill="#eeeeee" stroke="none" font-family="Arial" font-size="24px" font-style="normal" font-weight="normal" text-decoration="none" x="400" y="150"></text><text fill="#eeeeee" stroke="none" font-family="Arial" font-size="24px" font-style="normal" font-weight="normal" text-decoration="none" x="400" y="180"></text><text fill="#eeeeee" stroke="none" font-family="Arial" font-size="24px" font-style="normal" font-weight="normal" text-decoration="none" x="400" y="210"></text><text fill="#eeeeee" stroke="none" font-family="Arial" font-size="24px" font-style="normal" font-weight="normal" text-decoration="none" x="400" y="240"></text><text fill="#eeeeee" stroke="none" font-family="Arial" font-size="24px" font-style="normal" font-weight="normal" text-decoration="none" x="400" y="270"></text><text fill="#eeeeee" stroke="none" font-family="Arial" font-size="24px" font-style="normal" font-weight="normal" text-decoration="none" x="400" y="300"></text><text fill="#eeeeee" stroke="none" font-family="Arial" font-size="24px" font-style="normal" font-weight="normal" text-decoration="none" x="400" y="330"></text><text fill="#eeeeee" stroke="none" font-family="Arial" font-size="24px" font-style="normal" font-weight="normal" text-decoration="none" x="400" y="360"></text><text fill="#eeeeee" stroke="none" font-family="Arial" font-size="24px" font-style="normal" font-weight="normal" text-decoration="none" x="400" y="390"></text><text fill="#eeeeee" stroke="none" font-family="Arial" font-size="24px" font-style="normal" font-weight="normal" text-decoration="none" x="400" y="420"></text><text fill="#eeeeee" stroke="none" font-family="Arial" font-size="24px" font-style="normal" font-weight="normal" text-decoration="none" x="400" y="450"></text><text fill="#eeeeee" stroke="none" font-family="Arial" font-size="24px" font-style="normal" font-weight="normal" text-decoration="none" x="400" y="480"></text><text fill="#eeeeee" stroke="none" font-family="Arial" font-size="24px" font-style="normal" font-weight="normal" text-decoration="none" x="400" y="510"></text><text fill="#eeeeee" stroke="none" font-family="Arial" font-size="24px" font-style="normal" font-weight="normal" text-decoration="none" x="400" y="540"></text><text fill="#eeeeee" stroke="none" font-family="Arial" font-size="24px" font-style="normal" font-weight="normal" text-decoration="none" x="400" y="570"></text><text fill="#eeeeee" stroke="none" font-family="Arial" font-size="24px" font-style="normal" font-weight="normal" text-decoration="none" x="400" y="600"></text><text fill="#eeeeee" stroke="none" font-family="Arial" font-size="24px" font-style="normal" font-weight="normal" text-decoration="none" x="400" y="630"></text><text fill="#eeeeee" stroke="none" font-family="Arial" font-size="24px" font-style="normal" font-weight="normal" text-decoration="none" x="400" y="660"></text><text fill="#eeeeee" stroke="none" font-family="Arial" font-size="24px" font-style="normal" font-weight="normal" text-decoration="none" x="400" y="690"></text><text fill="#eeeeee" stroke="none" font-family="Arial" font-size="24px" font-style="normal" font-weight="normal" text-decoration="none" x="400" y="720"></text><text fill="#eeeeee" stroke="none" font-family="Arial" font-size="24px" font-style="normal" font-weight="normal" text-decoration="none" x="400" y="750"></text><text fill="#eeeeee" stroke="none" font-family="Arial" font-size="24px" font-style="normal" font-weight="normal" text-decoration="none" x="400" y="780"></text><text fill="#eeeeee" stroke="none" font-family="Arial" font-size="24px" font-style="normal" font-weight="normal" text-decoration="none" x="400" y="810"></text><text fill="#eeeeee" stroke="none" font-family="Arial" font-size="24px" font-style="normal" font-weight="normal" text-decoration="none" x="600" y="0"></text><text fill="#eeeeee" stroke="none" font-family="Arial" font-size="24px" font-style="normal" font-weight="normal" text-decoration="none" x="600" y="30"></text><text fill="#eeeeee" stroke="none" font-family="Arial" font-size="24px" font-style="normal" font-weight="normal" text-decoration="none" x="600" y="60"></text><text fill="#eeeeee" stroke="none" font-family="Arial" font-size="24px" font-style="normal" font-weight="normal" text-decoration="none" x="600" y="90"></text><text fill="#eeeeee" stroke="none" font-family="Arial" font-size="24px" font-style="normal" font-weight="normal" text-decoration="none" x="600" y="120"></text><text fill="#eeeeee" stroke="none" font-family="Arial" font-size="24px" font-style="normal" font-weight="normal" text-decoration="none" x="600" y="150"></text><text fill="#eeeeee" stroke="none" font-family="Arial" font-size="24px" font-style="normal" font-weight="normal" text-decoration="none" x="600" y="180"></text><text fill="#eeeeee" stroke="none" font-family="Arial" font-size="24px" font-style="normal" font-weight="normal" text-decoration="none" x="600" y="210"></text><text fill="#eeeeee" stroke="none" font-family="Arial" font-size="24px" font-style="normal" font-weight="normal" text-decoration="none" x="600" y="240"></text><text fill="#eeeeee" stroke="none" font-family="Arial" font-size="24px" font-style="normal" font-weight="normal" text-decoration="none" x="600" y="270"></text><text fill="#eeeeee" stroke="none" font-family="Arial" font-size="24px" font-style="normal" font-weight="normal" text-decoration="none" x="600" y="300"></text><text fill="#eeeeee" stroke="none" font-family="Arial" font-size="24px" font-style="normal" font-weight="normal" text-decoration="none" x="600" y="330"></text><text fill="#eeeeee" stroke="none" font-family="Arial" font-size="24px" font-style="normal" font-weight="normal" text-decoration="none" x="600" y="360"></text><text fill="#eeeeee" stroke="none" font-family="Arial" font-size="24px" font-style="normal" font-weight="normal" text-decoration="none" x="600" y="390"></text><text fill="#eeeeee" stroke="none" font-family="Arial" font-size="24px" font-style="normal" font-weight="normal" text-decoration="none" x="600" y="420"></text><text fill="#eeeeee" stroke="none" font-family="Arial" font-size="24px" font-style="normal" font-weight="normal" text-decoration="none" x="600" y="450"></text><text fill="#eeeeee" stroke="none" font-family="Arial" font-size="24px" font-style="normal" font-weight="normal" text-decoration="none" x="600" y="480"></text><text fill="#eeeeee" stroke="none" font-family="Arial" font-size="24px" font-style="normal" font-weight="normal" text-decoration="none" x="600" y="510"></text><text fill="#eeeeee" stroke="none" font-family="Arial" font-size="24px" font-style="normal" font-weight="normal" text-decoration="none" x="600" y="540"></text><text fill="#eeeeee" stroke="none" font-family="Arial" font-size="24px" font-style="normal" font-weight="normal" text-decoration="none" x="600" y="570"></text><text fill="#eeeeee" stroke="none" font-family="Arial" font-size="24px" font-style="normal" font-weight="normal" text-decoration="none" x="600" y="600"></text><text fill="#eeeeee" stroke="none" font-family="Arial" font-size="24px" font-style="normal" font-weight="normal" text-decoration="none" x="600" y="630"></text><text fill="#eeeeee" stroke="none" font-family="Arial" font-size="24px" font-style="normal" font-weight="normal" text-decoration="none" x="600" y="660"></text><text fill="#eeeeee" stroke="none" font-family="Arial" font-size="24px" font-style="normal" font-weight="normal" text-decoration="none" x="600" y="690"></text><text fill="#eeeeee" stroke="none" font-family="Arial" font-size="24px" font-style="normal" font-weight="normal" text-decoration="none" x="600" y="720"></text><text fill="#eeeeee" stroke="none" font-family="Arial" font-size="24px" font-style="normal" font-weight="normal" text-decoration="none" x="600" y="750"></text><text fill="#eeeeee" stroke="none" font-family="Arial" font-size="24px" font-style="normal" font-weight="normal" text-decoration="none" x="600" y="780"></text><text fill="#eeeeee" stroke="none" font-family="Arial" font-size="24px" font-style="normal" font-weight="normal" text-decoration="none" x="600" y="810"></text><g transform="translate(-294,-102) scale(1,1)"><path fill="#C0C0C0" stroke="none" d="M 759 128.5 C 759 123.2532944 763.2532944 119 768.5 119 C 773.7467056 119 778 123.2532944 778 128.5 C 778 133.7467056 773.7467056 138 768.5 138 C 763.2532944 138 759 133.7467056 759 128.5 Z" opacity="0.2"/></g><g transform="translate(-294,-102) scale(1,1)"><path fill="#000000" stroke="none" d="M 752 121.5 C 752 116.2532944 756.2532944 112 761.5 112 C 766.7467056 112 771 116.2532944 771 121.5 C 771 126.7467056 766.7467056 131 761.5 131 C 756.2532944 131 752 126.7467056 752 121.5 Z"/></g><g transform="translate(-294,-102) scale(1,1)"><path fill="#C0C0C0" stroke="none" d="M 641 167 L 894.3798828125 167 Q 904.3798828125 167 904.3798828125 177 L 904.3798828125 197 Q 904.3798828125 207 894.3798828125 207 L 641 207 Q 631 207 631 197 L 631 177 Q 631 167 641 167 Z" opacity="0.2"/></g><g transform="translate(-294,-102) scale(1,1)"><path fill="#ffffff" stroke="none" d="M 634 160 L 887.3798828125 160 Q 897.3798828125 160 897.3798828125 170 L 897.3798828125 190 Q 897.3798828125 200 887.3798828125 200 L 634 200 Q 624 200 624 190 L 624 170 Q 624 160 634 160 Z"/></g><g transform="translate(-294,-102) scale(1,1)"><path fill="none" stroke="#000000" d="M 634 160 L 887.3798828125 160 Q 897.3798828125 160 897.3798828125 170 L 897.3798828125 190 Q 897.3798828125 200 887.3798828125 200 L 634 200 Q 624 200 624 190 L 624 170 Q 624 160 634 160 Z" stroke-miterlimit="10"/></g><g transform="translate(-294,-102) scale(1,1)"><g><path fill="none" stroke="none"/><text fill="#000000" stroke="none" font-family="Arial" font-size="13px" font-style="normal" font-weight="bold" text-decoration="none" x="637.83740234375" y="179.5">Comprobación de la posición de la imágen</text></g></g><g transform="translate(-294,-102) scale(1,1)"><path fill="none" stroke="#000000" d="M 761 132 L 760 159" stroke-miterlimit="10"/></g><g transform="translate(-294,-102) scale(1,1)"><path fill="none" stroke="#000000" d="M 756.1695039351113 148.68848702193165 L 760 159 L 764.582771008294 149.0000895061236" stroke-miterlimit="10"/></g><g transform="translate(-294,-102) scale(1,1)"><path fill="#C0C0C0" stroke="none" d="M 631 256.5 L 642.5 247 L 653 256.5 L 642.5 265 L 631 256.5" opacity="0.2"/></g><g transform="translate(-294,-102) scale(1,1)"><path fill="#ffffff" stroke="none" d="M 624 249 L 635 240 L 646 249 L 635 258 L 624 249"/></g><g transform="translate(-294,-102) scale(1,1)"><path fill="none" stroke="#000000" d="M 624 249 L 635 240 L 646 249 L 635 258 L 624 249 L 624 249" stroke-miterlimit="10"/></g><g transform="translate(-294,-102) scale(1,1)"><path fill="none" stroke="#000000" d="M 722 201 L 647 242" stroke-miterlimit="10"/></g><g transform="translate(-294,-102) scale(1,1)"><path fill="none" stroke="#000000" d="M 653.8980333754441 233.43162001593888 L 647 242 L 657.9364057671404 240.81888658611496" stroke-miterlimit="10"/></g><g transform="translate(-294,-102) scale(1,1)"><path fill="#C0C0C0" stroke="none" d="M 581 305 L 707.97265625 305 Q 717.97265625 305 717.97265625 315 L 717.97265625 335 Q 717.97265625 345 707.97265625 345 L 581 345 Q 571 345 571 335 L 571 315 Q 571 305 581 305 Z" opacity="0.2"/></g><g transform="translate(-294,-102) scale(1,1)"><path fill="#ffffff" stroke="none" d="M 574 298 L 700.97265625 298 Q 710.97265625 298 710.97265625 308 L 710.97265625 328 Q 710.97265625 338 700.97265625 338 L 574 338 Q 564 338 564 328 L 564 308 Q 564 298 574 298 Z"/></g><g transform="translate(-294,-102) scale(1,1)"><path fill="none" stroke="#000000" d="M 574 298 L 700.97265625 298 Q 710.97265625 298 710.97265625 308 L 710.97265625 328 Q 710.97265625 338 700.97265625 338 L 574 338 Q 564 338 564 328 L 564 308 Q 564 298 574 298 Z" stroke-miterlimit="10"/></g><g transform="translate(-294,-102) scale(1,1)"><g><path fill="none" stroke="none"/><text fill="#000000" stroke="none" font-family="Arial" font-size="13px" font-style="normal" font-weight="bold" text-decoration="none" x="572.806884765625" y="317.5">Rotación de la imágen</text></g></g><g transform="translate(-294,-102) scale(1,1)"><path fill="none" stroke="#000000" d="M 635 259 L 636 297" stroke-miterlimit="10"/></g><g transform="translate(-294,-102) scale(1,1)"><path fill="none" stroke="#000000" d="M 631.5245928199677 286.9515806928197 L 636 297 L 639.9407146667412 286.7301038021151" stroke-miterlimit="10"/></g><g transform="translate(-294,-102) scale(1,1)"><g><path fill="none" stroke="none"/><text fill="#000000" stroke="none" font-family="Arial" font-size="13px" font-style="normal" font-weight="normal" text-decoration="none" x="639.5" y="276.5">vertical</text></g></g><g transform="translate(-294,-102) scale(1,1)"><path fill="#C0C0C0" stroke="none" d="M 801 305 L 985.76171875 305 Q 995.76171875 305 995.76171875 315 L 995.76171875 335 Q 995.76171875 345 985.76171875 345 L 801 345 Q 791 345 791 335 L 791 315 Q 791 305 801 305 Z" opacity="0.2"/></g><g transform="translate(-294,-102) scale(1,1)"><path fill="#ffffff" stroke="none" d="M 794 298 L 978.76171875 298 Q 988.76171875 298 988.76171875 308 L 988.76171875 328 Q 988.76171875 338 978.76171875 338 L 794 338 Q 784 338 784 328 L 784 308 Q 784 298 794 298 Z"/></g><g transform="translate(-294,-102) scale(1,1)"><path fill="none" stroke="#000000" d="M 794 298 L 978.76171875 298 Q 988.76171875 298 988.76171875 308 L 988.76171875 328 Q 988.76171875 338 978.76171875 338 L 794 338 Q 784 338 784 328 L 784 308 Q 784 298 794 298 Z" stroke-miterlimit="10"/></g><g transform="translate(-294,-102) scale(1,1)"><g><path fill="none" stroke="none"/><text fill="#000000" stroke="none" font-family="Arial" font-size="13px" font-style="normal" font-weight="bold" text-decoration="none" x="794.596923828125" y="317.5">Obtención de la zona de interés</text></g></g><g transform="translate(-294,-102) scale(1,1)"><path fill="none" stroke="#000000" d="M 647 252 L 810 297" stroke-miterlimit="10"/></g><g transform="translate(-294,-102) scale(1,1)"><path fill="none" stroke="#000000" d="M 799.0835573847799 298.35324817701877 L 810 297 L 801.3240184377457 290.23780036294227" stroke-miterlimit="10"/></g><g transform="translate(-294,-102) scale(1,1)"><g><path fill="none" stroke="none"/><text fill="#000000" stroke="none" font-family="Arial" font-size="13px" font-style="normal" font-weight="normal" text-decoration="none" x="703.5" y="265.5">horizontal</text></g></g><g transform="translate(-294,-102) scale(1,1)"><path fill="none" stroke="#000000" d="M 712 318 L 783 318" stroke-miterlimit="10"/></g><g transform="translate(-294,-102) scale(1,1)"><path fill="none" stroke="#000000" d="M 772.8373251423759 322.209517756016 L 783 318 L 772.8373251423758 313.790482243984" stroke-miterlimit="10"/></g><g transform="translate(-294,-102) scale(1,1)"><path fill="#C0C0C0" stroke="none" d="M 801 383 L 987.9580078125 383 Q 997.9580078125 383 997.9580078125 393 L 997.9580078125 413 Q 997.9580078125 423 987.9580078125 423 L 801 423 Q 791 423 791 413 L 791 393 Q 791 383 801 383 Z" opacity="0.2"/></g><g transform="translate(-294,-102) scale(1,1)"><path fill="#ffffff" stroke="none" d="M 794 376 L 980.9580078125 376 Q 990.9580078125 376 990.9580078125 386 L 990.9580078125 406 Q 990.9580078125 416 980.9580078125 416 L 794 416 Q 784 416 784 406 L 784 386 Q 784 376 794 376 Z"/></g><g transform="translate(-294,-102) scale(1,1)"><path fill="none" stroke="#000000" d="M 794 376 L 980.9580078125 376 Q 990.9580078125 376 990.9580078125 386 L 990.9580078125 406 Q 990.9580078125 416 980.9580078125 416 L 794 416 Q 784 416 784 406 L 784 386 Q 784 376 794 376 Z" stroke-miterlimit="10"/></g><g transform="translate(-294,-102) scale(1,1)"><g><path fill="none" stroke="none"/><text fill="#000000" stroke="none" font-family="Arial" font-size="13px" font-style="normal" font-weight="bold" text-decoration="none" x="795.7109375" y="395.5">Calculo del grosor de las barras</text></g></g><g transform="translate(-294,-102) scale(1,1)"><path fill="#C0C0C0" stroke="none" d="M 321 383 L 751.416015625 383 Q 761.416015625 383 761.416015625 393 L 761.416015625 413 Q 761.416015625 423 751.416015625 423 L 321 423 Q 311 423 311 413 L 311 393 Q 311 383 321 383 Z" opacity="0.2"/></g><g transform="translate(-294,-102) scale(1,1)"><path fill="#ffffff" stroke="none" d="M 314 376 L 744.416015625 376 Q 754.416015625 376 754.416015625 386 L 754.416015625 406 Q 754.416015625 416 744.416015625 416 L 314 416 Q 304 416 304 406 L 304 386 Q 304 376 314 376 Z"/></g><g transform="translate(-294,-102) scale(1,1)"><path fill="none" stroke="#000000" d="M 314 376 L 744.416015625 376 Q 754.416015625 376 754.416015625 386 L 754.416015625 406 Q 754.416015625 416 744.416015625 416 L 314 416 Q 304 416 304 406 L 304 386 Q 304 376 314 376 Z" stroke-miterlimit="10"/></g><g transform="translate(-294,-102) scale(1,1)"><g><path fill="none" stroke="none"/><text fill="#000000" stroke="none" font-family="Arial" font-size="13px" font-style="normal" font-weight="bold" text-decoration="none" x="323.991455078125" y="395.5">Cálculo del threshold del grosor de las barras. Barra fina - barra gruesa</text></g></g><g transform="translate(-294,-102) scale(1,1)"><path fill="#C0C0C0" stroke="none" d="M 393 463 L 699.89697265625 463 Q 709.89697265625 463 709.89697265625 473 L 709.89697265625 493 Q 709.89697265625 503 699.89697265625 503 L 393 503 Q 383 503 383 493 L 383 473 Q 383 463 393 463 Z" opacity="0.2"/></g><g transform="translate(-294,-102) scale(1,1)"><path fill="#ffffff" stroke="none" d="M 386 456 L 692.89697265625 456 Q 702.89697265625 456 702.89697265625 466 L 702.89697265625 486 Q 702.89697265625 496 692.89697265625 496 L 386 496 Q 376 496 376 486 L 376 466 Q 376 456 386 456 Z"/></g><g transform="translate(-294,-102) scale(1,1)"><path fill="none" stroke="#000000" d="M 386 456 L 692.89697265625 456 Q 702.89697265625 456 702.89697265625 466 L 702.89697265625 486 Q 702.89697265625 496 692.89697265625 496 L 386 496 Q 376 496 376 486 L 376 466 Q 376 456 386 456 Z" stroke-miterlimit="10"/></g><g transform="translate(-294,-102) scale(1,1)"><g><path fill="none" stroke="none"/><text fill="#000000" stroke="none" font-family="Arial" font-size="13px" font-style="normal" font-weight="bold" text-decoration="none" x="458.154052734375" y="475.5">Comprobación código inicial</text></g></g><g transform="translate(-294,-102) scale(1,1)"><path fill="#C0C0C0" stroke="none" d="M 519 568.5 L 530.5 559 L 541 568.5 L 530.5 577 L 519 568.5" opacity="0.2"/></g><g transform="translate(-294,-102) scale(1,1)"><path fill="#ffffff" stroke="none" d="M 512 561 L 523 552 L 534 561 L 523 570 L 512 561"/></g><g transform="translate(-294,-102) scale(1,1)"><path fill="none" stroke="#000000" d="M 512 561 L 523 552 L 534 561 L 523 570 L 512 561 L 512 561" stroke-miterlimit="10"/></g><g transform="translate(-294,-102) scale(1,1)"><path fill="none" stroke="#000000" d="M 535 497 L 525 551" stroke-miterlimit="10"/></g><g transform="translate(-294,-102) scale(1,1)"><path fill="none" stroke="#000000" d="M 522.711370887145 540.2407167160729 L 525 551 L 530.9896570054512 541.7737326639074" stroke-miterlimit="10"/></g><g transform="translate(-294,-102) scale(1,1)"><path fill="#C0C0C0" stroke="none" d="M 385 617 L 455.63720703125 617 Q 465.63720703125 617 465.63720703125 627 L 465.63720703125 647 Q 465.63720703125 657 455.63720703125 657 L 385 657 Q 375 657 375 647 L 375 627 Q 375 617 385 617 Z" opacity="0.2"/></g><g transform="translate(-294,-102) scale(1,1)"><path fill="#ffffff" stroke="none" d="M 378 610 L 448.63720703125 610 Q 458.63720703125 610 458.63720703125 620 L 458.63720703125 640 Q 458.63720703125 650 448.63720703125 650 L 378 650 Q 368 650 368 640 L 368 620 Q 368 610 378 610 Z"/></g><g transform="translate(-294,-102) scale(1,1)"><path fill="none" stroke="#000000" d="M 378 610 L 448.63720703125 610 Q 458.63720703125 610 458.63720703125 620 L 458.63720703125 640 Q 458.63720703125 650 448.63720703125 650 L 378 650 Q 368 650 368 640 L 368 620 Q 368 610 378 610 Z" stroke-miterlimit="10"/></g><g transform="translate(-294,-102) scale(1,1)"><g><path fill="none" stroke="none"/><text fill="#000000" stroke="none" font-family="Arial" font-size="13px" font-style="normal" font-weight="bold" text-decoration="none" x="375.759521484375" y="629.5">Mostrar error</text></g></g><g transform="translate(-294,-102) scale(1,1)"><path fill="none" stroke="#000000" d="M 511 569 L 446 609" stroke-miterlimit="10"/></g><g transform="translate(-294,-102) scale(1,1)"><path fill="none" stroke="#000000" d="M 452.4489291432435 600.088697463029 L 446 609 L 456.86132398167604 607.258839075482" stroke-miterlimit="10"/></g><g transform="translate(-294,-102) scale(1,1)"><g><path fill="none" stroke="none"/><text fill="#000000" stroke="none" font-family="Arial" font-size="13px" font-style="normal" font-weight="normal" text-decoration="none" x="390.5" y="579.5">código erroneo</text></g></g><g transform="translate(-294,-102) scale(1,1)"><path fill="#C0C0C0" stroke="none" d="M 505 617 L 743.29150390625 617 Q 753.29150390625 617 753.29150390625 627 L 753.29150390625 647 Q 753.29150390625 657 743.29150390625 657 L 505 657 Q 495 657 495 647 L 495 627 Q 495 617 505 617 Z" opacity="0.2"/></g><g transform="translate(-294,-102) scale(1,1)"><path fill="#ffffff" stroke="none" d="M 498 610 L 736.29150390625 610 Q 746.29150390625 610 746.29150390625 620 L 746.29150390625 640 Q 746.29150390625 650 736.29150390625 650 L 498 650 Q 488 650 488 640 L 488 620 Q 488 610 498 610 Z"/></g><g transform="translate(-294,-102) scale(1,1)"><path fill="none" stroke="#000000" d="M 498 610 L 736.29150390625 610 Q 746.29150390625 610 746.29150390625 620 L 746.29150390625 640 Q 746.29150390625 650 736.29150390625 650 L 498 650 Q 488 650 488 640 L 488 620 Q 488 610 498 610 Z" stroke-miterlimit="10"/></g><g transform="translate(-294,-102) scale(1,1)"><g><path fill="none" stroke="none"/><text fill="#000000" stroke="none" font-family="Arial" font-size="13px" font-style="normal" font-weight="bold" text-decoration="none" x="499.714111328125" y="629.5">Analisis de 10 en 10 elementos del array</text></g></g><g transform="translate(-294,-102) scale(1,1)"><path fill="none" stroke="#000000" d="M 535 570 L 588 609" stroke-miterlimit="10"/></g><g transform="translate(-294,-102) scale(1,1)"><path fill="none" stroke="#000000" d="M 577.31969994043 606.3672845505921 L 588 609 L 582.3094983499819 599.5862764555601" stroke-miterlimit="10"/></g><g transform="translate(-294,-102) scale(1,1)"><g><path fill="none" stroke="none"/><text fill="#000000" stroke="none" font-family="Arial" font-size="13px" font-style="normal" font-weight="normal" text-decoration="none" x="550.5" y="572.5">código correcto</text></g></g><g transform="translate(-294,-102) scale(1,1)"><path fill="#C0C0C0" stroke="none" d="M 809 615 L 1042.2197265625 615 Q 1052.2197265625 615 1052.2197265625 625 L 1052.2197265625 645 Q 1052.2197265625 655 1042.2197265625 655 L 809 655 Q 799 655 799 645 L 799 625 Q 799 615 809 615 Z" opacity="0.2"/></g><g transform="translate(-294,-102) scale(1,1)"><path fill="#ffffff" stroke="none" d="M 802 608 L 1035.2197265625 608 Q 1045.2197265625 608 1045.2197265625 618 L 1045.2197265625 638 Q 1045.2197265625 648 1035.2197265625 648 L 802 648 Q 792 648 792 638 L 792 618 Q 792 608 802 608 Z"/></g><g transform="translate(-294,-102) scale(1,1)"><path fill="none" stroke="#000000" d="M 802 608 L 1035.2197265625 608 Q 1045.2197265625 608 1045.2197265625 618 L 1045.2197265625 638 Q 1045.2197265625 648 1035.2197265625 648 L 802 648 Q 792 648 792 638 L 792 618 Q 792 608 802 608 Z" stroke-miterlimit="10"/></g><g transform="translate(-294,-102) scale(1,1)"><g><path fill="none" stroke="none"/><text fill="#000000" stroke="none" font-family="Arial" font-size="13px" font-style="normal" font-weight="bold" text-decoration="none" x="804.79638671875" y="627.5">Separación posiciones pares e impares</text></g></g><g transform="translate(-294,-102) scale(1,1)"><path fill="#C0C0C0" stroke="none" d="M 817 703 L 1028.54248046875 703 Q 1038.54248046875 703 1038.54248046875 713 L 1038.54248046875 733 Q 1038.54248046875 743 1028.54248046875 743 L 817 743 Q 807 743 807 733 L 807 713 Q 807 703 817 703 Z" opacity="0.2"/></g><g transform="translate(-294,-102) scale(1,1)"><path fill="#ffffff" stroke="none" d="M 810 696 L 1021.54248046875 696 Q 1031.54248046875 696 1031.54248046875 706 L 1031.54248046875 726 Q 1031.54248046875 736 1021.54248046875 736 L 810 736 Q 800 736 800 726 L 800 706 Q 800 696 810 696 Z"/></g><g transform="translate(-294,-102) scale(1,1)"><path fill="none" stroke="#000000" d="M 810 696 L 1021.54248046875 696 Q 1031.54248046875 696 1031.54248046875 706 L 1031.54248046875 726 Q 1031.54248046875 736 1021.54248046875 736 L 810 736 Q 800 736 800 726 L 800 706 Q 800 696 810 696 Z" stroke-miterlimit="10"/></g><g transform="translate(-294,-102) scale(1,1)"><g><path fill="none" stroke="none"/><text fill="#000000" stroke="none" font-family="Arial" font-size="13px" font-style="normal" font-weight="bold" text-decoration="none" x="811.720458984375" y="715.5">Uso de máscaras para la traducción</text></g></g><g transform="translate(-294,-102) scale(1,1)"><path fill="#C0C0C0" stroke="none" d="M 545 703 L 719.681640625 703 Q 729.681640625 703 729.681640625 713 L 729.681640625 733 Q 729.681640625 743 719.681640625 743 L 545 743 Q 535 743 535 733 L 535 713 Q 535 703 545 703 Z" opacity="0.2"/></g><g transform="translate(-294,-102) scale(1,1)"><path fill="#ffffff" stroke="none" d="M 538 696 L 712.681640625 696 Q 722.681640625 696 722.681640625 706 L 722.681640625 726 Q 722.681640625 736 712.681640625 736 L 538 736 Q 528 736 528 726 L 528 706 Q 528 696 538 696 Z"/></g><g transform="translate(-294,-102) scale(1,1)"><path fill="none" stroke="#000000" d="M 538 696 L 712.681640625 696 Q 722.681640625 696 722.681640625 706 L 722.681640625 726 Q 722.681640625 736 712.681640625 736 L 538 736 Q 528 736 528 726 L 528 706 Q 528 696 538 696 Z" stroke-miterlimit="10"/></g><g transform="translate(-294,-102) scale(1,1)"><g><path fill="none" stroke="none"/><text fill="#000000" stroke="none" font-family="Arial" font-size="13px" font-style="normal" font-weight="bold" text-decoration="none" x="537.90185546875" y="715.5">Paso de numpy array a entero</text></g></g><g transform="translate(-294,-102) scale(1,1)"><path fill="#C0C0C0" stroke="none" d="M 577 791 L 683.04443359375 791 Q 693.04443359375 791 693.04443359375 801 L 693.04443359375 821 Q 693.04443359375 831 683.04443359375 831 L 577 831 Q 567 831 567 821 L 567 801 Q 567 791 577 791 Z" opacity="0.2"/></g><g transform="translate(-294,-102) scale(1,1)"><path fill="#ffffff" stroke="none" d="M 570 784 L 676.04443359375 784 Q 686.04443359375 784 686.04443359375 794 L 686.04443359375 814 Q 686.04443359375 824 676.04443359375 824 L 570 824 Q 560 824 560 814 L 560 794 Q 560 784 570 784 Z"/></g><g transform="translate(-294,-102) scale(1,1)"><path fill="none" stroke="#000000" d="M 570 784 L 676.04443359375 784 Q 686.04443359375 784 686.04443359375 794 L 686.04443359375 814 Q 686.04443359375 824 676.04443359375 824 L 570 824 Q 560 824 560 814 L 560 794 Q 560 784 570 784 Z" stroke-miterlimit="10"/></g><g transform="translate(-294,-102) scale(1,1)"><g><path fill="none" stroke="none"/><text fill="#000000" stroke="none" font-family="Arial" font-size="13px" font-style="normal" font-weight="bold" text-decoration="none" x="568.8291015625" y="803.5">Devolver resultado</text></g></g><g transform="translate(-294,-102) scale(1,1)"><path fill="#C0C0C0" stroke="none" d="M 615 899.5 C 615 892.59644 620.59644 887 627.5 887 C 634.40356 887 640 892.59644 640 899.5 C 640 906.40356 634.40356 912 627.5 912 C 620.59644 912 615 906.40356 615 899.5 Z" opacity="0.2"/></g><g transform="translate(-294,-102) scale(1,1)"><path fill="none" stroke="#000000" d="M 608 892.5 C 608 885.59644 613.59644 880 620.5 880 C 627.40356 880 633 885.59644 633 892.5 C 633 899.40356 627.40356 905 620.5 905 C 613.59644 905 608 899.40356 608 892.5 Z" stroke-miterlimit="10"/></g><g transform="translate(-294,-102) scale(1,1)"><path fill="#000000" stroke="none" d="M 613 892.5 C 613 888.357864 616.357864 885 620.5 885 C 624.642136 885 628 888.357864 628 892.5 C 628 896.642136 624.642136 900 620.5 900 C 616.357864 900 613 896.642136 613 892.5 Z"/></g><g transform="translate(-294,-102) scale(1,1)"><path fill="none" stroke="#000000" d="M 886 339 L 887 375" stroke-miterlimit="10"/></g><g transform="translate(-294,-102) scale(1,1)"><path fill="none" stroke="#000000" d="M 882.5099176709792 364.9581296224948 L 887 375 L 890.9257069767938 364.72435769733335" stroke-miterlimit="10"/></g><g transform="translate(-294,-102) scale(1,1)"><path fill="none" stroke="#000000" d="M 783 396 L 755 396" stroke-miterlimit="10"/></g><g transform="translate(-294,-102) scale(1,1)"><path fill="none" stroke="#000000" d="M 765.1626748576241 391.790482243984 L 755 396 L 765.1626748576241 400.209517756016" stroke-miterlimit="10"/></g><g transform="translate(-294,-102) scale(1,1)"><path fill="none" stroke="#000000" d="M 532 417 L 536 455" stroke-miterlimit="10"/></g><g transform="translate(-294,-102) scale(1,1)"><path fill="none" stroke="#000000" d="M 530.7497342098753 445.3338368970389 L 536 455 L 539.1225109349301 444.4524919786121" stroke-miterlimit="10"/></g><g transform="translate(-294,-102) scale(1,1)"><path fill="none" stroke="#000000" d="M 747 629 L 791 629" stroke-miterlimit="10"/></g><g transform="translate(-294,-102) scale(1,1)"><path fill="none" stroke="#000000" d="M 780.8373251423759 633.209517756016 L 791 629 L 780.8373251423758 624.790482243984" stroke-miterlimit="10"/></g><g transform="translate(-294,-102) scale(1,1)"><path fill="none" stroke="#000000" d="M 917 649 L 916 695" stroke-miterlimit="10"/></g><g transform="translate(-294,-102) scale(1,1)"><path fill="none" stroke="#000000" d="M 912.0123521078249 684.7482360401718 L 916 695 L 920.429398949577 684.9312153193404" stroke-miterlimit="10"/></g><g transform="translate(-294,-102) scale(1,1)"><path fill="none" stroke="#000000" d="M 799 716 L 724 716" stroke-miterlimit="10"/></g><g transform="translate(-294,-102) scale(1,1)"><path fill="none" stroke="#000000" d="M 734.1626748576241 711.790482243984 L 724 716 L 734.1626748576241 720.209517756016" stroke-miterlimit="10"/></g><g transform="translate(-294,-102) scale(1,1)"><path fill="none" stroke="#000000" d="M 625 737 L 623 783" stroke-miterlimit="10"/></g><g transform="translate(-294,-102) scale(1,1)"><path fill="none" stroke="#000000" d="M 619.235893749185 772.6640673312673 L 623 783 L 627.6469830248906 773.0297668649936" stroke-miterlimit="10"/></g><g transform="translate(-294,-102) scale(1,1)"><path fill="none" stroke="#000000" d="M 622 825 L 620 879" stroke-miterlimit="10"/></g><g transform="translate(-294,-102) scale(1,1)"><path fill="none" stroke="#000000" d="M 616.1695039351113 868.6884870219317 L 620 879 L 624.582771008294 869.0000895061236" stroke-miterlimit="10"/></g></g></svg>