<svg version="1.1" xmlns="http://www.w3.org/2000/svg" xmlns:xlink="http://www.w3.org/1999/xlink" width="708" height="429"><defs/><g><text fill="#eeeeee" stroke="none" font-family="Arial" font-size="24px" font-style="normal" font-weight="normal" text-decoration="none" x="0" y="0"></text><text fill="#eeeeee" stroke="none" font-family="Arial" font-size="24px" font-style="normal" font-weight="normal" text-decoration="none" x="0" y="30"></text><text fill="#eeeeee" stroke="none" font-family="Arial" font-size="24px" font-style="normal" font-weight="normal" text-decoration="none" x="0" y="60"></text><text fill="#eeeeee" stroke="none" font-family="Arial" font-size="24px" font-style="normal" font-weight="normal" text-decoration="none" x="0" y="90"></text><text fill="#eeeeee" stroke="none" font-family="Arial" font-size="24px" font-style="normal" font-weight="normal" text-decoration="none" x="0" y="120"></text><text fill="#eeeeee" stroke="none" font-family="Arial" font-size="24px" font-style="normal" font-weight="normal" text-decoration="none" x="0" y="150"></text><text fill="#eeeeee" stroke="none" font-family="Arial" font-size="24px" font-style="normal" font-weight="normal" text-decoration="none" x="0" y="180"></text><text fill="#eeeeee" stroke="none" font-family="Arial" font-size="24px" font-style="normal" font-weight="normal" text-decoration="none" x="0" y="210"></text><text fill="#eeeeee" stroke="none" font-family="Arial" font-size="24px" font-style="normal" font-weight="normal" text-decoration="none" x="0" y="240"></text><text fill="#eeeeee" stroke="none" font-family="Arial" font-size="24px" font-style="normal" font-weight="normal" text-decoration="none" x="0" y="270"></text><text fill="#eeeeee" stroke="none" font-family="Arial" font-size="24px" font-style="normal" font-weight="normal" text-decoration="none" x="0" y="300"></text><text fill="#eeeeee" stroke="none" font-family="Arial" font-size="24px" font-style="normal" font-weight="normal" text-decoration="none" x="0" y="330"></text><text fill="#eeeeee" stroke="none" font-family="Arial" font-size="24px" font-style="normal" font-weight="normal" text-decoration="none" x="0" y="360"></text><text fill="#eeeeee" stroke="none" font-family="Arial" font-size="24px" font-style="normal" font-weight="normal" text-decoration="none" x="0" y="390"></text><text fill="#eeeeee" stroke="none" font-family="Arial" font-size="24px" font-style="normal" font-weight="normal" text-decoration="none" x="0" y="420"></text><text fill="#eeeeee" stroke="none" font-family="Arial" font-size="24px" font-style="normal" font-weight="normal" text-decoration="none" x="200" y="0"></text><text fill="#eeeeee" stroke="none" font-family="Arial" font-size="24px" font-style="normal" font-weight="normal" text-decoration="none" x="200" y="30"></text><text fill="#eeeeee" stroke="none" font-family="Arial" font-size="24px" font-style="normal" font-weight="normal" text-decoration="none" x="200" y="60"></text><text fill="#eeeeee" stroke="none" font-family="Arial" font-size="24px" font-style="normal" font-weight="normal" text-decoration="none" x="200" y="90"></text><text fill="#eeeeee" stroke="none" font-family="Arial" font-size="24px" font-style="normal" font-weight="normal" text-decoration="none" x="200" y="120"></text><text fill="#eeeeee" stroke="none" font-family="Arial" font-size="24px" font-style="normal" font-weight="normal" text-decoration="none" x="200" y="150"></text><text fill="#eeeeee" stroke="none" font-family="Arial" font-size="24px" font-style="normal" font-weight="normal" text-decoration="none" x="200" y="180"></text><text fill="#eeeeee" stroke="none" font-family="Arial" font-size="24px" font-style="normal" font-weight="normal" text-decoration="none" x="200" y="210"></text><text fill="#eeeeee" stroke="none" font-family="Arial" font-size="24px" font-style="normal" font-weight="normal" text-decoration="none" x="200" y="240"></text><text fill="#eeeeee" stroke="none" font-family="Arial" font-size="24px" font-style="normal" font-weight="normal" text-decoration="none" x="200" y="270"></text><text fill="#eeeeee" stroke="none" font-family="Arial" font-size="24px" font-style="normal" font-weight="normal" text-decoration="none" x="200" y="300"></text><text fill="#eeeeee" stroke="none" font-family="Arial" font-size="24px" font-style="normal" font-weight="normal" text-decoration="none" x="200" y="330"></text><text fill="#eeeeee" stroke="none" font-family="Arial" font-size="24px" font-style="normal" font-weight="normal" text-decoration="none" x="200" y="360"></text><text fill="#eeeeee" stroke="none" font-family="Arial" font-size="24px" font-style="normal" font-weight="normal" text-decoration="none" x="200" y="390"></text><text fill="#eeeeee" stroke="none" font-family="Arial" font-size="24px" font-style="normal" font-weight="normal" text-decoration="none" x="200" y="420"></text><text fill="#eeeeee" stroke="none" font-family="Arial" font-size="24px" font-style="normal" font-weight="normal" text-decoration="none" x="400" y="0"></text><text fill="#eeeeee" stroke="none" font-family="Arial" font-size="24px" font-style="normal" font-weight="normal" text-decoration="none" x="400" y="30"></text><text fill="#eeeeee" stroke="none" font-family="Arial" font-size="24px" font-style="normal" font-weight="normal" text-decoration="none" x="400" y="60"></text><text fill="#eeeeee" stroke="none" font-family="Arial" font-size="24px" font-style="normal" font-weight="normal" text-decoration="none" x="400" y="90"></text><text fill="#eeeeee" stroke="none" font-family="Arial" font-size="24px" font-style="normal" font-weight="normal" text-decoration="none" x="400" y="120"></text><text fill="#eeeeee" stroke="none" font-family="Arial" font-size="24px" font-style="normal" font-weight="normal" text-decoration="none" x="400" y="150"></text><text fill="#eeeeee" stroke="none" font-family="Arial" font-size="24px" font-style="normal" font-weight="normal" text-decoration="none" x="400" y="180"></text><text fill="#eeeeee" stroke="none" font-family="Arial" font-size="24px" font-style="normal" font-weight="normal" text-decoration="none" x="400" y="210"></text><text fill="#eeeeee" stroke="none" font-family="Arial" font-size="24px" font-style="normal" font-weight="normal" text-decoration="none" x="400" y="240"></text><text fill="#eeeeee" stroke="none" font-family="Arial" font-size="24px" font-style="normal" font-weight="normal" text-decoration="none" x="400" y="270"></text><text fill="#eeeeee" stroke="none" font-family="Arial" font-size="24px" font-style="normal" font-weight="normal" text-decoration="none" x="400" y="300"></text><text fill="#eeeeee" stroke="none" font-family="Arial" font-size="24px" font-style="normal" font-weight="normal" text-decoration="none" x="400" y="330"></text><text fill="#eeeeee" stroke="none" font-family="Arial" font-size="24px" font-style="normal" font-weight="normal" text-decoration="none" x="400" y="360"></text><text fill="#eeeeee" stroke="none" font-family="Arial" font-size="24px" font-style="normal" font-weight="normal" text-decoration="none" x="400" y="390"></text><text fill="#eeeeee" stroke="none" font-family="Arial" font-size="24px" font-style="normal" font-weight="normal" text-decoration="none" x="400" y="420"></text><text fill="#eeeeee" stroke="none" font-family="Arial" font-size="24px" font-style="normal" font-weight="normal" text-decoration="none" x="600" y="0"></text><text fill="#eeeeee" stroke="none" font-family="Arial" font-size="24px" font-style="normal" font-weight="normal" text-decoration="none" x="600" y="30"></text><text fill="#eeeeee" stroke="none" font-family="Arial" font-size="24px" font-style="normal" font-weight="normal" text-decoration="none" x="600" y="60"></text><text fill="#eeeeee" stroke="none" font-family="Arial" font-size="24px" font-style="normal" font-weight="normal" text-decoration="none" x="600" y="90"></text><text fill="#eeeeee" stroke="none" font-family="Arial" font-size="24px" font-style="normal" font-weight="normal" text-decoration="none" x="600" y="120"></text><text fill="#eeeeee" stroke="none" font-family="Arial" font-size="24px" font-style="normal" font-weight="normal" text-decoration="none" x="600" y="150"></text><text fill="#eeeeee" stroke="none" font-family="Arial" font-size="24px" font-style="normal" font-weight="normal" text-decoration="none" x="600" y="180"></text><text fill="#eeeeee" stroke="none" font-family="Arial" font-size="24px" font-style="normal" font-weight="normal" text-decoration="none" x="600" y="210"></text><text fill="#eeeeee" stroke="none" font-family="Arial" font-size="24px" font-style="normal" font-weight="normal" text-decoration="none" x="600" y="240"></text><text fill="#eeeeee" stroke="none" font-family="Arial" font-size="24px" font-style="normal" font-weight="normal" text-decoration="none" x="600" y="270"></text><text fill="#eeeeee" stroke="none" font-family="Arial" font-size="24px" font-style="normal" font-weight="normal" text-decoration="none" x="600" y="300"></text><text fill="#eeeeee" stroke="none" font-family="Arial" font-size="24px" font-style="normal" font-weight="normal" text-decoration="none" x="600" y="330"></text><text fill="#eeeeee" stroke="none" font-family="Arial" font-size="24px" font-style="normal" font-weight="normal" text-decoration="none" x="600" y="360"></text><text fill="#eeeeee" stroke="none" font-family="Arial" font-size="24px" font-style="normal" font-weight="normal" text-decoration="none" x="600" y="390"></text><text fill="#eeeeee" stroke="none" font-family="Arial" font-size="24px" font-style="normal" font-weight="normal" text-decoration="none" x="600" y="420"></text><g transform="translate(-214,-22) scale(1,1)"><path fill="#C0C0C0" stroke="none" d="M 297 127 L 499.12890625 127 Q 509.12890625 127 509.12890625 137 L 509.12890625 157 Q 509.12890625 167 499.12890625 167 L 297 167 Q 287 167 287 157 L 287 137 Q 287 127 297 127 Z" opacity="0.2"/></g><g transform="translate(-214,-22) scale(1,1)"><path fill="#ffffff" stroke="none" d="M 290 120 L 492.12890625 120 Q 502.12890625 120 502.12890625 130 L 502.12890625 150 Q 502.12890625 160 492.12890625 160 L 290 160 Q 280 160 280 150 L 280 130 Q 280 120 290 120 Z"/></g><g transform="translate(-214,-22) scale(1,1)"><path fill="none" stroke="#000000" d="M 290 120 L 492.12890625 120 Q 502.12890625 120 502.12890625 130 L 502.12890625 150 Q 502.12890625 160 492.12890625 160 L 290 160 Q 280 160 280 150 L 280 130 Q 280 120 290 120 Z" stroke-miterlimit="10"/></g><g transform="translate(-214,-22) scale(1,1)"><g><path fill="none" stroke="none"/><text fill="#000000" stroke="none" font-family="Arial" font-size="13px" font-style="normal" font-weight="bold" text-decoration="none" x="292.063232421875" y="139.5">Lectura y conversión de la imagen</text></g></g><g transform="translate(-214,-22) scale(1,1)"><path fill="#C0C0C0" stroke="none" d="M 383 55 C 383 46.1634432 390.1634432 39 399 39 C 407.8365568 39 415 46.1634432 415 55 C 415 63.8365568 407.8365568 71 399 71 C 390.1634432 71 383 63.8365568 383 55 Z" opacity="0.2"/></g><g transform="translate(-214,-22) scale(1,1)"><path fill="#000000" stroke="none" d="M 376 48 C 376 39.1634432 383.1634432 32 392 32 C 400.8365568 32 408 39.1634432 408 48 C 408 56.8365568 400.8365568 64 392 64 C 383.1634432 64 376 56.8365568 376 48 Z"/></g><g transform="translate(-214,-22) scale(1,1)"><path fill="none" stroke="#000000" d="M 392 65 L 391 119" stroke-miterlimit="10"/></g><g transform="translate(-214,-22) scale(1,1)"><path fill="none" stroke="#000000" d="M 386.97936927599744 108.76112659609434 L 391 119 L 395.3969615660231 108.91700793479853" stroke-miterlimit="10"/></g><g transform="translate(-214,-22) scale(1,1)"><path fill="#C0C0C0" stroke="none" d="M 673 127 L 876 127 Q 886 127 886 137 L 886 157 Q 886 167 876 167 L 673 167 Q 663 167 663 157 L 663 137 Q 663 127 673 127 Z" opacity="0.2"/></g><g transform="translate(-214,-22) scale(1,1)"><path fill="#ffffff" stroke="none" d="M 666 120 L 869 120 Q 879 120 879 130 L 879 150 Q 879 160 869 160 L 666 160 Q 656 160 656 150 L 656 130 Q 656 120 666 120 Z"/></g><g transform="translate(-214,-22) scale(1,1)"><path fill="none" stroke="#000000" d="M 666 120 L 869 120 Q 879 120 879 130 L 879 150 Q 879 160 869 160 L 666 160 Q 656 160 656 150 L 656 130 Q 656 120 666 120 Z" stroke-miterlimit="10"/></g><g transform="translate(-214,-22) scale(1,1)"><g><path fill="none" stroke="none"/><text fill="#000000" stroke="none" font-family="Arial" font-size="13px" font-style="normal" font-weight="bold" text-decoration="none" x="677.16015625" y="139.5">Cáculo de módulo de gradiente</text></g></g><g transform="translate(-214,-22) scale(1,1)"><path fill="#C0C0C0" stroke="none" d="M 673 223 L 876 223 Q 886 223 886 233 L 886 253 Q 886 263 876 263 L 673 263 Q 663 263 663 253 L 663 233 Q 663 223 673 223 Z" opacity="0.2"/></g><g transform="translate(-214,-22) scale(1,1)"><path fill="#ffffff" stroke="none" d="M 666 216 L 869 216 Q 879 216 879 226 L 879 246 Q 879 256 869 256 L 666 256 Q 656 256 656 246 L 656 226 Q 656 216 666 216 Z"/></g><g transform="translate(-214,-22) scale(1,1)"><path fill="none" stroke="#000000" d="M 666 216 L 869 216 Q 879 216 879 226 L 879 246 Q 879 256 869 256 L 666 256 Q 656 256 656 246 L 656 226 Q 656 216 666 216 Z" stroke-miterlimit="10"/></g><g transform="translate(-214,-22) scale(1,1)"><g><path fill="none" stroke="none"/><text fill="#000000" stroke="none" font-family="Arial" font-size="13px" font-style="normal" font-weight="bold" text-decoration="none" x="672.48193359375" y="235.5">Aplicación de erosiones y cierres</text></g></g><g transform="translate(-214,-22) scale(1,1)"><path fill="#C0C0C0" stroke="none" d="M 297 223 L 492 223 Q 502 223 502 233 L 502 253 Q 502 263 492 263 L 297 263 Q 287 263 287 253 L 287 233 Q 287 223 297 223 Z" opacity="0.2"/></g><g transform="translate(-214,-22) scale(1,1)"><path fill="#ffffff" stroke="none" d="M 290 216 L 485 216 Q 495 216 495 226 L 495 246 Q 495 256 485 256 L 290 256 Q 280 256 280 246 L 280 226 Q 280 216 290 216 Z"/></g><g transform="translate(-214,-22) scale(1,1)"><path fill="none" stroke="#000000" d="M 290 216 L 485 216 Q 495 216 495 226 L 495 246 Q 495 256 485 256 L 290 256 Q 280 256 280 246 L 280 226 Q 280 216 290 216 Z" stroke-miterlimit="10"/></g><g transform="translate(-214,-22) scale(1,1)"><g><path fill="none" stroke="none"/><text fill="#000000" stroke="none" font-family="Arial" font-size="13px" font-style="normal" font-weight="bold" text-decoration="none" x="297.518798828125" y="235.5">Busqueda del blob más grande</text></g></g><g transform="translate(-214,-22) scale(1,1)"><path fill="#C0C0C0" stroke="none" d="M 241 319 L 538.470703125 319 Q 548.470703125 319 548.470703125 329 L 548.470703125 349 Q 548.470703125 359 538.470703125 359 L 241 359 Q 231 359 231 349 L 231 329 Q 231 319 241 319 Z" opacity="0.2"/></g><g transform="translate(-214,-22) scale(1,1)"><path fill="#ffffff" stroke="none" d="M 234 312 L 531.470703125 312 Q 541.470703125 312 541.470703125 322 L 541.470703125 342 Q 541.470703125 352 531.470703125 352 L 234 352 Q 224 352 224 342 L 224 322 Q 224 312 234 312 Z"/></g><g transform="translate(-214,-22) scale(1,1)"><path fill="none" stroke="#000000" d="M 234 312 L 531.470703125 312 Q 541.470703125 312 541.470703125 322 L 541.470703125 342 Q 541.470703125 352 531.470703125 352 L 234 352 Q 224 352 224 342 L 224 322 Q 224 312 234 312 Z" stroke-miterlimit="10"/></g><g transform="translate(-214,-22) scale(1,1)"><g><path fill="none" stroke="none"/><text fill="#000000" stroke="none" font-family="Arial" font-size="13px" font-style="normal" font-weight="bold" text-decoration="none" x="238.932373046875" y="331.5">Recortar el blob mas grande de la imagen original</text></g></g><g transform="translate(-214,-22) scale(1,1)"><path fill="#C0C0C0" stroke="none" d="M 657 327 L 909 327 Q 919 327 919 337 L 919 357 Q 919 367 909 367 L 657 367 Q 647 367 647 357 L 647 337 Q 647 327 657 327 Z" opacity="0.2"/></g><g transform="translate(-214,-22) scale(1,1)"><path fill="#ffffff" stroke="none" d="M 650 320 L 902 320 Q 912 320 912 330 L 912 350 Q 912 360 902 360 L 650 360 Q 640 360 640 350 L 640 330 Q 640 320 650 320 Z"/></g><g transform="translate(-214,-22) scale(1,1)"><path fill="none" stroke="#000000" d="M 650 320 L 902 320 Q 912 320 912 330 L 912 350 Q 912 360 902 360 L 650 360 Q 640 360 640 350 L 640 330 Q 640 320 650 320 Z" stroke-miterlimit="10"/></g><g transform="translate(-214,-22) scale(1,1)"><g><path fill="none" stroke="none"/><text fill="#000000" stroke="none" font-family="Arial" font-size="13px" font-style="normal" font-weight="bold" text-decoration="none" x="654.242431640625" y="339.5">Devolver imagen recortada original y bbox</text></g></g><g transform="translate(-214,-22) scale(1,1)"><path fill="#C0C0C0" stroke="none" d="M 775 435.5 C 775 428.59644 780.59644 423 787.5 423 C 794.40356 423 800 428.59644 800 435.5 C 800 442.40356 794.40356 448 787.5 448 C 780.59644 448 775 442.40356 775 435.5 Z" opacity="0.2"/></g><g transform="translate(-214,-22) scale(1,1)"><path fill="none" stroke="#000000" d="M 768 428.5 C 768 421.59644 773.59644 416 780.5 416 C 787.40356 416 793 421.59644 793 428.5 C 793 435.40356 787.40356 441 780.5 441 C 773.59644 441 768 435.40356 768 428.5 Z" stroke-miterlimit="10"/></g><g transform="translate(-214,-22) scale(1,1)"><path fill="#000000" stroke="none" d="M 773 428.5 C 773 424.357864 776.357864 421 780.5 421 C 784.642136 421 788 424.357864 788 428.5 C 788 432.642136 784.642136 436 780.5 436 C 776.357864 436 773 432.642136 773 428.5 Z"/></g><g transform="translate(-214,-22) scale(1,1)"><path fill="none" stroke="#000000" d="M 503 140 L 655 140" stroke-miterlimit="10"/></g><g transform="translate(-214,-22) scale(1,1)"><path fill="none" stroke="#000000" d="M 644.8373251423759 144.209517756016 L 655 140 L 644.8373251423758 135.790482243984" stroke-miterlimit="10"/></g><g transform="translate(-214,-22) scale(1,1)"><path fill="none" stroke="#000000" d="M 767 161 L 767 215" stroke-miterlimit="10"/></g><g transform="translate(-214,-22) scale(1,1)"><path fill="none" stroke="#000000" d="M 762.790482243984 204.83732514237585 L 767 215 L 771.209517756016 204.83732514237585" stroke-miterlimit="10"/></g><g transform="translate(-214,-22) scale(1,1)"><path fill="none" stroke="#000000" d="M 655 236 L 496 236" stroke-miterlimit="10"/></g><g transform="translate(-214,-22) scale(1,1)"><path fill="none" stroke="#000000" d="M 506.16267485762415 231.790482243984 L 496 236 L 506.16267485762415 240.209517756016" stroke-miterlimit="10"/></g><g transform="translate(-214,-22) scale(1,1)"><path fill="none" stroke="#000000" d="M 386 257 L 383 311" stroke-miterlimit="10"/></g><g transform="translate(-214,-22) scale(1,1)"><path fill="none" stroke="#000000" d="M 379.3606871882736 300.6194700396173 L 383 311 L 387.7667603592659 301.0864741046724" stroke-miterlimit="10"/></g><g transform="translate(-214,-22) scale(1,1)"><path fill="none" stroke="#000000" d="M 542 335 L 639 337" stroke-miterlimit="10"/></g><g transform="translate(-214,-22) scale(1,1)"><path fill="none" stroke="#000000" d="M 628.7527089195856 340.9991280941302 L 639 337 L 628.9262603940535 332.5818815824397" stroke-miterlimit="10"/></g><g transform="translate(-214,-22) scale(1,1)"><path fill="none" stroke="#000000" d="M 777 361 L 779 415" stroke-miterlimit="10"/></g><g transform="translate(-214,-22) scale(1,1)"><path fill="none" stroke="#000000" d="M 774.417228991706 405.0000895061236 L 779 415 L 782.8304960648887 404.6884870219316" stroke-miterlimit="10"/></g></g></svg>